<?xml version="1.0" encoding="UTF-8"?>
<svg xmlns="http://www.w3.org/2000/svg" xmlns:xlink="http://www.w3.org/1999/xlink" width="24px" height="24px" viewBox="0 0 24 24" version="1.1">
<g id="surface1">
<path style=" stroke:none;fill-rule:nonzero;fill:rgb(64.313725%,64.313725%,64.313725%);fill-opacity:1;" d="M 17.714844 4.964844 L 23.46875 10.71875 C 23.808594 11.058594 24 11.523438 24 12 C 24 12.476562 23.808594 12.941406 23.46875 13.28125 L 17.714844 19.035156 C 17.414062 19.335938 17.011719 19.5 16.589844 19.5 C 15.710938 19.5 15 18.789062 15 17.910156 L 15 15 L 9 15 C 8.171875 15 7.5 14.328125 7.5 13.5 L 7.5 10.5 C 7.5 9.671875 8.171875 9 9 9 L 15 9 L 15 6.089844 C 15 5.210938 15.710938 4.5 16.589844 4.5 C 17.011719 4.5 17.414062 4.667969 17.714844 4.964844 Z M 7.5 4.5 L 4.5 4.5 C 3.671875 4.5 3 5.171875 3 6 L 3 18 C 3 18.828125 3.671875 19.5 4.5 19.5 L 7.5 19.5 C 8.328125 19.5 9 20.171875 9 21 C 9 21.828125 8.328125 22.5 7.5 22.5 L 4.5 22.5 C 2.015625 22.5 0 20.484375 0 18 L 0 6 C 0 3.515625 2.015625 1.5 4.5 1.5 L 7.5 1.5 C 8.328125 1.5 9 2.171875 9 3 C 9 3.828125 8.328125 4.5 7.5 4.5 Z M 7.5 4.5 "/>
</g>
</svg>
