<?xml version="1.0" encoding="UTF-8"?>
<svg xmlns="http://www.w3.org/2000/svg" xmlns:xlink="http://www.w3.org/1999/xlink" width="24px" height="22px" viewBox="0 0 24 22" version="1.1">
<g id="surface1">
<path style=" stroke:none;fill-rule:nonzero;fill:rgb(64.313725%,64.313725%,64.313725%);fill-opacity:1;" d="M 23.992188 10.976562 C 23.992188 11.75 23.367188 12.355469 22.65625 12.355469 L 21.324219 12.355469 L 21.351562 19.242188 C 21.351562 19.359375 21.34375 19.472656 21.335938 19.589844 L 21.335938 20.28125 C 21.335938 21.230469 20.585938 22 19.664062 22 L 19 22 C 18.953125 22 18.90625 22 18.863281 21.996094 C 18.804688 22 18.746094 22 18.6875 22 L 16.335938 22 C 15.414062 22 14.664062 21.230469 14.664062 20.28125 L 14.664062 16.5 C 14.664062 15.738281 14.070312 15.125 13.335938 15.125 L 10.664062 15.125 C 9.929688 15.125 9.335938 15.738281 9.335938 16.5 L 9.335938 20.28125 C 9.335938 21.230469 8.585938 22 7.664062 22 L 5.335938 22 C 5.273438 22 5.210938 21.996094 5.148438 21.992188 C 5.101562 21.996094 5.050781 22 5 22 L 4.335938 22 C 3.414062 22 2.664062 21.230469 2.664062 20.28125 L 2.664062 15.46875 C 2.664062 15.429688 2.664062 15.386719 2.671875 15.347656 L 2.671875 12.355469 L 1.335938 12.355469 C 0.585938 12.355469 0 11.753906 0 10.976562 C 0 10.59375 0.125 10.25 0.414062 9.945312 L 11.101562 0.34375 C 11.390625 0.0429688 11.726562 0 12.015625 0 C 12.308594 0 12.640625 0.0859375 12.890625 0.300781 L 23.53125 9.945312 C 23.867188 10.25 24.03125 10.59375 23.992188 10.976562 Z M 23.992188 10.976562 "/>
</g>
</svg>
