<?xml version="1.0" encoding="UTF-8"?>
<svg xmlns="http://www.w3.org/2000/svg" xmlns:xlink="http://www.w3.org/1999/xlink" width="px" height="24px" viewBox="0 0 24 24" version="1.1">
<g id="surface1">
<path style=" stroke:none;fill-rule:nonzero;fill:rgb(64.313725%,64.313725%,64.313725%);fill-opacity:1;" d="M 19.5 9.75 C 19.5 11.902344 18.800781 13.890625 17.625 15.5 L 23.558594 21.441406 C 24.144531 22.027344 24.144531 22.976562 23.558594 23.5625 C 22.972656 24.148438 22.023438 24.148438 21.4375 23.5625 L 15.5 17.625 C 13.890625 18.804688 11.902344 19.5 9.75 19.5 C 4.363281 19.5 0 15.136719 0 9.75 C 0 4.363281 4.363281 0 9.75 0 C 15.136719 0 19.5 4.363281 19.5 9.75 Z M 4.875 10.125 L 4.875 13.125 C 4.875 13.75 5.375 14.25 6 14.25 C 6.625 14.25 7.125 13.75 7.125 13.125 L 7.125 10.125 C 7.125 9.5 6.625 9 6 9 C 5.375 9 4.875 9.5 4.875 10.125 Z M 8.625 5.625 L 8.625 13.125 C 8.625 13.75 9.125 14.25 9.75 14.25 C 10.375 14.25 10.875 13.75 10.875 13.125 L 10.875 5.625 C 10.875 5 10.375 4.5 9.75 4.5 C 9.125 4.5 8.625 5 8.625 5.625 Z M 12.375 8.625 L 12.375 13.125 C 12.375 13.75 12.875 14.25 13.5 14.25 C 14.125 14.25 14.625 13.75 14.625 13.125 L 14.625 8.625 C 14.625 8 14.125 7.5 13.5 7.5 C 12.875 7.5 12.375 8 12.375 8.625 Z M 12.375 8.625 "/>
</g>
</svg>
